# xmcd CD database file
#
# Track frame offsets:
#	150
#	17676
#	47562
#	62535
#	80856
#	104807
#	125060
#	163198
#	181860
#	215994
#	236908
#	256595
#	273293
#	295352
#	307205
#	327349
#
# Disc length: 4649 seconds
#
# Revision: 7
# Processed by: cddbd v1.5.2PL0 Copyright (c) Steve Scherf et al.
# Submitted via: CDex 1.70beta2
#
DISCID=fa122710
DTITLE=Rainbow - Colour Collection
DYEAR=2001
DGENRE=Hard Rock
TTITLE0=All Night Long
TTITLE1=Catch The Rainbow
TTITLE2=Since You've Been Gone
TTITLE3=I Surrender
TTITLE4=Stone Gold
TTITLE5=Kill The King
TTITLE6=Stargazer
TTITLE7=Starstruck
TTITLE8=Sixteenth Century Greensleeves
TTITLE9=Man On The Silver Mountain
TTITLE10=Long Live Rock 'n' Roll
TTITLE11=Run With The Wolf
TTITLE12=Lost In Hollywood
TTITLE13=If You Don't Like Rock 'n' Roll
TTITLE14=Miss Mistreated
TTITLE15=Death Alley Driver
EXTD=YEAR: 2001
EXTT0=
EXTT1=
EXTT2=
EXTT3=
EXTT4=
EXTT5=
EXTT6=
EXTT7=
EXTT8=
EXTT9=
EXTT10=
EXTT11=
EXTT12=
EXTT13=
EXTT14=
EXTT15=
PLAYORDER=
